<svg xmlns="http://www.w3.org/2000/svg" viewBox="0 0 500 500"><g id="freepik--Floor--inject-9"><path id="freepik--floor--inject-9" d="M88.45,442.21c90.2,53.24,236.46,53.24,326.67,0s90.21-139.56,0-192.79-236.47-53.24-326.68,0S-1.76,389,88.45,442.21Z" style="fill:#f5f5f5"></path></g><g id="freepik--Shadow--inject-9"><ellipse id="freepik--Shadows--inject-9" cx="391.14" cy="405.54" rx="44.19" ry="25.51" style="fill:#e0e0e0"></ellipse></g><g id="freepik--Clouds--inject-9"><g id="freepik--clouds--inject-9"><path d="M363.42,77.14l7.67,4.43a9,9,0,0,1-.07-1V78.33c0-4,2.78-5.56,6.2-3.58a12.08,12.08,0,0,1,3.7,3.55c.56-5,4.46-6.82,9.2-4.09,5.12,3,9.27,10.15,9.27,16.07V93.6a8.79,8.79,0,0,1-.78,3.85l6.36,3.68a7.6,7.6,0,0,1,3.44,6c0,2.19-1.54,3.08-3.44,2l-41.55-24a7.6,7.6,0,0,1-3.44-6C360,76.93,361.52,76,363.42,77.14Z" style="fill:#ebebeb"></path><path d="M330.6,99.48l5.79,3.34a6.61,6.61,0,0,1-.05-.76v-1.68c0-3,2.1-4.19,4.68-2.7a9,9,0,0,1,2.79,2.68c.42-3.75,3.36-5.15,6.94-3.09a15.48,15.48,0,0,1,7,12.13v2.51a6.56,6.56,0,0,1-.59,2.9l4.8,2.78a5.73,5.73,0,0,1,2.6,4.49c0,1.66-1.16,2.33-2.6,1.5L330.6,105.47A5.73,5.73,0,0,1,328,101C328,99.32,329.17,98.65,330.6,99.48Z" style="fill:#ebebeb"></path></g></g><g id="freepik--Plant--inject-9"><g id="freepik--Plants--inject-9"><path d="M73.88,288.62c-.57.31-11,3.28-14.9-1.84s2.55-13.09-1.08-16-13.81,0-16.26-6.17,4.81-8.85.73-15.08c-2.57-3.92-8.89-6.12-9.45-9.75-.92-6.06,9.12-8.85,17.72-3.12s13.79,3.1,16.52,2.71,8.6.47,8.41,10S73.88,288.62,73.88,288.62Z" style="fill:#92E3A9"></path><path d="M74.57,275a.56.56,0,0,1-.56-.48c-3-18.16-24.11-32.95-35.09-36.12a.57.57,0,0,1,.31-1.1c11.23,3.25,32.83,18.4,35.9,37a.57.57,0,0,1-.47.65Z" style="fill:#fff"></path><path d="M49.67,259.8a.56.56,0,0,1-.29-1.05c.34-.21,8.46-5,16.47-2.74a.59.59,0,0,1,.4.71.57.57,0,0,1-.7.39C58,255,50,259.68,50,259.73A.59.59,0,0,1,49.67,259.8Z" style="fill:#fff"></path></g></g><g id="freepik--Device--inject-9"><g id="freepik--Laptop--inject-9"><path d="M77.93,295.6a9.29,9.29,0,0,0,4.33,7.19l121.33,70a9.57,9.57,0,0,0,8.66,0l166-95.85a8.13,8.13,0,0,0,0-14.38L256.93,192.56a9.57,9.57,0,0,0-8.66,0l-166,95.85A9.29,9.29,0,0,0,77.93,295.6Z" style="fill:#37474f"></path><path d="M207.92,364.5v9.37a8.83,8.83,0,0,1-4.33-1l-121.33-70a8.11,8.11,0,0,1-.44-14.1c-1.94,1.39-1.79,3.43.44,4.72l121.33,70A8.83,8.83,0,0,0,207.92,364.5Z" style="fill:#263238"></path><path d="M73.87,288.56a9.25,9.25,0,0,1-4.06-7.34V136.43a9.58,9.58,0,0,1,4.33-7.5l166-95.84a9.3,9.3,0,0,1,8.39-.16,9.29,9.29,0,0,1,4.07,7.35V185.06a9.56,9.56,0,0,1-4.33,7.5l-166,95.85A9.27,9.27,0,0,1,73.87,288.56Z" style="fill:#455a64"></path><path d="M81.75,288.67a9.3,9.3,0,0,1-7.88-.11,9.28,9.28,0,0,1-4.06-7.34V136.43a8.74,8.74,0,0,1,1.27-4.26l8.12,4.68h0a8.88,8.88,0,0,0-1.27,4.26V285.91C77.93,288.47,79.6,289.62,81.75,288.67Z" style="fill:#263238"></path><path d="M77.93,141.12V285.91c0,2.76,1.94,3.88,4.33,2.5l166-95.85a9.56,9.56,0,0,0,4.33-7.5V40.28c0-2.76-1.94-3.88-4.33-2.5l-166,95.84A9.59,9.59,0,0,0,77.93,141.12Z" style="fill:#37474f"></path><path d="M82.26,293.41l121.33,70a9.57,9.57,0,0,0,8.66,0l166-95.85c2.39-1.38,2.39-3.62,0-5L256.93,192.56a9.57,9.57,0,0,0-8.66,0l-166,95.85C79.87,289.79,79.87,292,82.26,293.41Z" style="fill:#455a64"></path><path d="M84.59,141.66l160-92.38c1.44-.83,2.6-.16,2.6,1.5V176.11a5.73,5.73,0,0,1-2.6,4.5L84.59,273c-1.44.83-2.6.16-2.6-1.5V146.16A5.73,5.73,0,0,1,84.59,141.66Z" style="fill:#fff"></path><path d="M84.59,141.66l160-92.38c1.44-.83,2.6-.16,2.6,1.5V176.11a5.73,5.73,0,0,1-2.6,4.5L84.59,273c-1.44.83-2.6.16-2.6-1.5V146.16A5.73,5.73,0,0,1,84.59,141.66Z" style="fill:#92E3A9;opacity:0.6"></path><path d="M164.27,133.73c4.26-2.46,7.72-.46,7.72,4.46a17.06,17.06,0,0,1-7.72,13.36c-4.26,2.46-7.71.47-7.71-4.45A17.06,17.06,0,0,1,164.27,133.73Z" style="fill:#f0f0f0"></path><path d="M179.48,160.05c0-8.08-5.68-11.67-12.68-7.63L162.43,155c-7,4-12.68,13.87-12.68,22v2.18l29.73-17.16Z" style="fill:#f0f0f0"></path><path d="M194.51,164c-.28-.65-1-.81-1.81-.35l-51.92,30a4.28,4.28,0,0,0-1.92,3.33v6.1c0,1,.62,1.55,1.46,1.32l.14-.05a3.13,3.13,0,0,0,.32-.15l51.92-30a4.24,4.24,0,0,0,1.92-3.33V164.8A2.37,2.37,0,0,0,194.51,164Z" style="fill:#f0f0f0"></path><path d="M145.47,194.41c1-.59,1.83-.11,1.83,1.05a4,4,0,0,1-1.83,3.16c-1,.58-1.82.11-1.82-1.06A4,4,0,0,1,145.47,194.41Z" style="fill:#92E3A9"></path><path d="M151.51,190.92c1-.58,1.82-.11,1.82,1.06a4,4,0,0,1-1.82,3.15c-1,.59-1.83.11-1.83-1A4,4,0,0,1,151.51,190.92Z" style="fill:#92E3A9"></path><path d="M157.54,187.44c1-.58,1.82-.11,1.82,1.05a4,4,0,0,1-1.82,3.16c-1,.58-1.83.11-1.83-1.05A4,4,0,0,1,157.54,187.44Z" style="fill:#92E3A9"></path><path d="M163.57,184c1-.59,1.83-.11,1.83,1a4,4,0,0,1-1.83,3.16c-1,.58-1.82.11-1.82-1A4,4,0,0,1,163.57,184Z" style="fill:#92E3A9"></path><path d="M169.6,180.47c1-.58,1.83-.11,1.83,1.06a4.05,4.05,0,0,1-1.83,3.16c-1,.58-1.82.11-1.82-1.06A4.05,4.05,0,0,1,169.6,180.47Z" style="fill:#92E3A9"></path><path d="M175.64,177c1-.58,1.82-.11,1.82,1a4,4,0,0,1-1.82,3.16c-1,.58-1.83.11-1.83-1A4,4,0,0,1,175.64,177Z" style="fill:#92E3A9"></path><path d="M181.67,173.51c1-.58,1.82-.11,1.82,1.05a4,4,0,0,1-1.82,3.16c-1,.58-1.82.11-1.82-1.05A4,4,0,0,1,181.67,173.51Z" style="fill:#92E3A9"></path><path d="M187.7,170c1-.58,1.83-.11,1.83,1.06a4.05,4.05,0,0,1-1.83,3.16c-1,.58-1.82.11-1.82-1.06A4.07,4.07,0,0,1,187.7,170Z" style="fill:#92E3A9"></path><path d="M96.34,289.66l154.09-89a4.79,4.79,0,0,1,4.33,0l7.88,4.55a1.32,1.32,0,0,1,0,2.5L108.53,296.7a4.79,4.79,0,0,1-4.33,0l-7.86-4.54A1.32,1.32,0,0,1,96.34,289.66Z" style="fill:#37474f"></path><path d="M116.65,301.39l154.09-89a4.79,4.79,0,0,1,4.33,0l48.48,28a1.32,1.32,0,0,1,0,2.5L169.64,331.75a4.84,4.84,0,0,1-4.34,0l-48.64-27.88A1.31,1.31,0,0,1,116.65,301.39Z" style="fill:#263238"></path><path d="M254.78,252.45l4.83-2.79c.2-.12.19-.32,0-.44L254,246a.84.84,0,0,0-.77,0l-4.83,2.79c-.2.11-.19.31,0,.44l5.58,3.22A.84.84,0,0,0,254.78,252.45Zm-9.52-11.07-4.82,2.78c-.21.12-.2.32,0,.45l5.58,3.22a.87.87,0,0,0,.77,0l4.83-2.79c.2-.12.19-.32,0-.44L246,241.4A.84.84,0,0,0,245.26,241.38Zm-15.59,9-8.16,4.71c-.21.12-.19.32,0,.45l5.57,3.22a.87.87,0,0,0,.77,0l8.17-4.71c.2-.12.19-.32,0-.44l-5.58-3.23A.87.87,0,0,0,229.67,250.38Zm8.54-4.93-4.83,2.79c-.2.11-.19.31,0,.44L239,251.9a.87.87,0,0,0,.77,0l4.82-2.79c.21-.12.2-.32,0-.44L239,245.47A.84.84,0,0,0,238.21,245.45Zm-18.93,10.93-4.82,2.78c-.21.12-.2.32,0,.45l5.58,3.22a.84.84,0,0,0,.77,0l4.83-2.78c.2-.12.19-.32,0-.45l-5.58-3.22A.87.87,0,0,0,219.28,256.38Zm-7.05,4.07-4.82,2.78c-.21.12-.2.32,0,.45L213,266.9a.87.87,0,0,0,.77,0l4.83-2.79c.2-.12.19-.32,0-.44L213,260.47A.84.84,0,0,0,212.23,260.45Zm21.94,13.1,4.83-2.79c.2-.12.19-.32,0-.44l-5.58-3.22a.84.84,0,0,0-.77,0l-4.82,2.79c-.21.11-.19.31,0,.44l5.57,3.22A.84.84,0,0,0,234.17,273.55Zm-7,4.07,4.83-2.79c.2-.12.19-.31,0-.44l-5.58-3.22a.84.84,0,0,0-.77,0l-4.82,2.79c-.21.12-.2.31,0,.44l5.58,3.22A.84.84,0,0,0,227.12,277.62Zm-7.05,4.07,4.83-2.79c.2-.11.19-.31,0-.44l-5.58-3.22a.84.84,0,0,0-.77,0L213.7,278c-.21.12-.2.32,0,.44l5.58,3.22A.84.84,0,0,0,220.07,281.69Zm-7,4.07,4.83-2.79c.2-.11.19-.31,0-.44l-5.58-3.22a.87.87,0,0,0-.77,0l-4.83,2.79c-.2.12-.19.32,0,.44l5.58,3.22A.84.84,0,0,0,213,285.76Zm34.71-29.24,4.82-2.79c.21-.12.2-.31,0-.44L247,250.07a.84.84,0,0,0-.77,0l-4.83,2.79c-.2.12-.19.31,0,.44L247,256.5A.84.84,0,0,0,247.73,256.52Zm-6.5,13L252,263.26c.2-.12.19-.32,0-.44L238.41,255a.84.84,0,0,0-.77,0l-5.56,3.21c-.21.12-.2.32,0,.45l7.18,4.14c.22.13.23.33,0,.44l-4.45,2.57c-.21.12-.19.32,0,.45l5.58,3.22A.87.87,0,0,0,241.23,269.48Zm-36-5-4.83,2.79c-.2.11-.19.31,0,.44L206,271a.87.87,0,0,0,.77,0l4.82-2.79c.21-.12.2-.32,0-.44L206,264.54A.84.84,0,0,0,205.18,264.52Zm-7.05,4.07-4.83,2.79c-.2.12-.19.31,0,.44l5.58,3.22a.84.84,0,0,0,.77,0l4.82-2.79c.21-.12.2-.32,0-.44l-5.58-3.22A.84.84,0,0,0,198.13,268.59Zm-35.24,45.65a.84.84,0,0,0,.77,0l4.83-2.79c.2-.12.19-.32,0-.44l-5.58-3.22a.84.84,0,0,0-.77,0l-4.82,2.79c-.21.11-.2.31,0,.44Zm-21.17-13.08L136.89,304c-.2.11-.19.31,0,.44l5.58,3.22a.87.87,0,0,0,.77,0l4.82-2.79c.21-.12.2-.32,0-.44l-5.58-3.22A.84.84,0,0,0,141.72,301.16Zm11.35,9.55a.84.84,0,0,0,.77,0l4.82-2.79c.21-.12.19-.32,0-.44l-5.58-3.22a.84.84,0,0,0-.77,0l-4.82,2.79c-.2.12-.19.31,0,.44Zm22.27,6,4.83-2.79c.2-.12.19-.32,0-.44l-5.58-3.22a.84.84,0,0,0-.77,0L169,313c-.21.11-.2.31,0,.44l5.58,3.22A.87.87,0,0,0,175.34,316.72Zm-7.82,4a.84.84,0,0,0,.77,0l4.83-2.79c.2-.12.19-.32,0-.44l-5.58-3.22a.84.84,0,0,0-.77,0l-4.83,2.79c-.2.11-.19.31,0,.44Zm-18.75-23.68-4.83,2.78c-.2.12-.19.32,0,.45l5.58,3.22a.87.87,0,0,0,.77,0l4.82-2.79c.21-.12.2-.32,0-.44l-5.58-3.23A.87.87,0,0,0,148.77,297.09ZM184,276.73l-4.83,2.79c-.2.12-.19.32,0,.44l5.58,3.22a.84.84,0,0,0,.77,0l4.82-2.79c.21-.11.19-.31,0-.44l-5.58-3.22A.85.85,0,0,0,184,276.73ZM155.82,293,151,295.8c-.21.12-.2.32,0,.45l5.58,3.22a.84.84,0,0,0,.77,0l4.83-2.78c.2-.12.19-.32,0-.45L156.59,293A.87.87,0,0,0,155.82,293Zm35.26-20.36-4.83,2.79c-.2.12-.19.32,0,.44l5.58,3.22a.84.84,0,0,0,.77,0l4.82-2.79c.21-.12.19-.31,0-.44l-5.58-3.22A.84.84,0,0,0,191.08,272.66ZM177,280.8l-4.82,2.79c-.21.12-.19.32,0,.44l5.58,3.22a.84.84,0,0,0,.77,0l4.82-2.78c.2-.12.19-.32,0-.45l-5.58-3.22A.87.87,0,0,0,177,280.8Zm-7.05,4.08-4.82,2.78c-.21.12-.19.32,0,.44l5.57,3.23a.87.87,0,0,0,.77,0l4.83-2.78c.2-.12.19-.32,0-.45l-5.58-3.22A.84.84,0,0,0,169.92,284.88Zm-7,4.07-4.82,2.78c-.21.12-.2.32,0,.45l5.58,3.22a.87.87,0,0,0,.77,0l4.83-2.78c.2-.12.19-.32,0-.45L163.64,289A.87.87,0,0,0,162.87,289Zm36,4.95,4.82-2.78c.21-.12.19-.32,0-.45l-5.58-3.22a.84.84,0,0,0-.77,0l-4.83,2.78c-.2.12-.19.32,0,.45l5.58,3.22A.87.87,0,0,0,198.92,293.9Zm61.93-61.52L256,235.17c-.2.11-.19.31,0,.44l5.58,3.22a.87.87,0,0,0,.77,0l4.82-2.79c.21-.12.2-.32,0-.44l-5.58-3.22A.84.84,0,0,0,260.85,232.38Zm-8.54,4.93-4.82,2.78c-.21.12-.2.32,0,.45l5.58,3.22a.84.84,0,0,0,.77,0l4.83-2.78c.2-.12.19-.32,0-.45l-5.58-3.22A.87.87,0,0,0,252.31,237.31Zm15.59-9-4.83,2.78c-.2.12-.19.32,0,.45l5.58,3.22a.87.87,0,0,0,.77,0l4.82-2.79c.21-.12.2-.32,0-.44l-5.58-3.23A.87.87,0,0,0,267.9,228.31ZM231.4,266l4.83-2.79c.2-.12.19-.32,0-.44l-5.58-3.23a.87.87,0,0,0-.77,0L225,262.26c-.2.12-.19.32,0,.45l5.58,3.22A.87.87,0,0,0,231.4,266Zm44.32-41.7a.87.87,0,0,0-.77,0L270.13,227c-.21.12-.2.32,0,.45l5.58,3.22a.84.84,0,0,0,.77,0l4.83-2.78c.2-.12.19-.32,0-.45ZM206,289.83l4.82-2.78c.21-.12.2-.32,0-.45l-5.58-3.22a.87.87,0,0,0-.77,0l-4.83,2.79c-.2.12-.19.32,0,.44l5.58,3.23A.87.87,0,0,0,206,289.83Zm86.47-49.92,4.82-2.79c.21-.12.2-.32,0-.44l-5.58-3.22a.84.84,0,0,0-.77,0l-4.83,2.79c-.2.11-.19.31,0,.44l5.58,3.22A.84.84,0,0,0,292.44,239.91Zm-15-.53,4.82-2.79c.21-.12.2-.32,0-.44l-5.58-3.22a.84.84,0,0,0-.77,0L271,235.7c-.2.11-.19.31,0,.44l5.58,3.22A.84.84,0,0,0,277.42,239.38Zm6.27-10.53a.87.87,0,0,0-.77,0l-4.83,2.78c-.2.12-.19.32,0,.45l5.58,3.22a.87.87,0,0,0,.77,0l4.83-2.79c.2-.12.19-.32,0-.44Zm1.48-.85,13.55,7.82a.87.87,0,0,0,.77,0l4.83-2.79c.2-.12.19-.32,0-.44l-13.55-7.83a.87.87,0,0,0-.77,0l-4.82,2.78C284.94,227.67,285,227.87,285.17,228Zm-16.35,9L264,239.77c-.2.12-.19.31,0,.44l5.58,3.22a.84.84,0,0,0,.77,0l4.82-2.79c.21-.12.2-.31,0-.44L269.59,237A.84.84,0,0,0,268.82,237Zm-53.07,30.64-4.83,2.79c-.2.12-.19.31,0,.44l5.58,3.22a.84.84,0,0,0,.77,0l4.82-2.79c.21-.12.19-.31,0-.44l-5.57-3.22A.84.84,0,0,0,215.75,267.62ZM284.62,244a.84.84,0,0,0,.77,0l4.82-2.79c.21-.12.2-.31,0-.44l-5.58-3.22a.84.84,0,0,0-.77,0L279,240.3c-.2.12-.19.31,0,.44ZM222.8,263.55,218,266.34c-.2.11-.19.31,0,.44l5.58,3.22a.84.84,0,0,0,.77,0l4.82-2.79c.21-.12.2-.32,0-.44l-5.58-3.22A.84.84,0,0,0,222.8,263.55Zm-52.86,46.62a.87.87,0,0,0,.77,0l4.83-2.79c.2-.12.19-.32,0-.44l-5.58-3.22a.84.84,0,0,0-.77,0l-4.82,2.79c-.21.11-.2.31,0,.44Zm-10.6-10L154.51,303c-.2.11-.19.31,0,.44l5.58,3.22a.87.87,0,0,0,.77,0l4.82-2.79c.21-.12.19-.32,0-.44l-5.57-3.22A.84.84,0,0,0,159.34,300.19Zm18.42,5.93,4.83-2.79c.2-.12.19-.32,0-.44L177,299.66a.87.87,0,0,0-.77,0l-4.82,2.78c-.21.12-.19.32,0,.45L177,306.1A.87.87,0,0,0,177.76,306.12Zm7.06-4.08,4.82-2.78c.2-.12.19-.32,0-.45L184,295.59a.87.87,0,0,0-.77,0l-4.82,2.78c-.21.12-.19.32,0,.45l5.58,3.22A.84.84,0,0,0,184.82,302Zm7.05-4.07,4.82-2.78c.21-.12.19-.32,0-.45l-5.58-3.22a.85.85,0,0,0-.76,0l-4.83,2.78c-.2.12-.19.32,0,.45L191.1,298A.87.87,0,0,0,191.87,298Zm-25.48-1.85-4.83,2.78c-.2.12-.19.32,0,.45l5.58,3.22a.87.87,0,0,0,.77,0l4.82-2.79c.21-.12.2-.32,0-.44l-5.58-3.23A.87.87,0,0,0,166.39,296.12Zm7.05-4.07-4.83,2.78c-.2.12-.19.32,0,.45l5.58,3.22a.84.84,0,0,0,.77,0l4.82-2.78c.21-.12.2-.32,0-.45l-5.58-3.22A.87.87,0,0,0,173.44,292.05Zm28.2-16.29-4.82,2.79c-.21.12-.19.32,0,.44l5.58,3.22a.82.82,0,0,0,.76,0l4.83-2.79c.2-.11.19-.31,0-.44l-5.58-3.22A.87.87,0,0,0,201.64,275.76Zm-7,4.07-4.82,2.79c-.21.12-.19.32,0,.44l5.57,3.23a.87.87,0,0,0,.77,0l4.83-2.78c.2-.12.19-.32,0-.45l-5.58-3.22A.87.87,0,0,0,194.59,279.83Zm14.11-8.14-4.83,2.79c-.2.12-.19.32,0,.44l5.58,3.22a.84.84,0,0,0,.77,0l4.82-2.79c.21-.11.19-.31,0-.44l-5.58-3.22A.82.82,0,0,0,208.7,271.69ZM180.49,288l-4.82,2.78c-.21.12-.2.32,0,.45l5.58,3.22a.87.87,0,0,0,.77,0l4.83-2.78c.2-.12.19-.32,0-.45L181.26,288A.87.87,0,0,0,180.49,288Zm7-4.07-4.82,2.78c-.21.12-.2.32,0,.45l5.58,3.22a.87.87,0,0,0,.77,0l4.83-2.78c.2-.12.19-.32,0-.45l-5.58-3.22A.84.84,0,0,0,187.54,283.91Zm-5.15,28.74,4.83-2.79c.2-.12.19-.32,0-.44l-5.58-3.23a.87.87,0,0,0-.77,0L176,309c-.21.12-.2.32,0,.45l5.57,3.22A.87.87,0,0,0,182.39,312.65ZM141,308.47l-5.57-3.22a.84.84,0,0,0-.77,0L129.84,308c-.2.11-.19.31,0,.44l5.58,3.22a.84.84,0,0,0,.77,0l4.82-2.79C141.25,308.79,141.23,308.59,141,308.47Zm10.57,3.1L146,308.35a.84.84,0,0,0-.77,0l-7.42,4.29c-.2.12-.19.31,0,.44l5.58,3.22a.84.84,0,0,0,.77,0l7.42-4.29C151.81,311.89,151.8,311.7,151.58,311.57Zm-19.12-9.33L126.88,299a.87.87,0,0,0-.77,0l-5.94,3.43c-.21.12-.19.32,0,.45l5.57,3.22a.87.87,0,0,0,.77,0l5.94-3.43C132.69,302.57,132.68,302.37,132.46,302.24Zm4.55-2.63a.84.84,0,0,0,.77,0l4.82-2.79c.21-.12.19-.31,0-.44L137,293.18a.84.84,0,0,0-.77,0L131.4,296c-.2.12-.19.31,0,.44Zm24.4,15.49-5.58-3.22a.84.84,0,0,0-.77,0l-9.28,5.36c-.2.12-.19.32,0,.44l5.58,3.22a.84.84,0,0,0,.77,0l9.27-5.36C161.64,315.42,161.63,315.23,161.41,315.1Zm4.63,6.53-5.58-3.22a.84.84,0,0,0-.77,0l-5.94,3.43c-.2.12-.19.32,0,.44l5.58,3.23a.87.87,0,0,0,.77,0l5.93-3.43C166.27,322,166.26,321.76,166,321.63Zm23.39-52.29a.84.84,0,0,0,.77,0l4.83-2.79c.2-.11.19-.31,0-.44l-5.58-3.22a.84.84,0,0,0-.77,0l-4.82,2.79c-.21.12-.19.32,0,.44Zm-14.1,8.15a.87.87,0,0,0,.77,0l4.83-2.78c.2-.12.19-.32,0-.45l-5.58-3.22a.87.87,0,0,0-.77,0l-4.82,2.79c-.21.12-.2.32,0,.44Zm-31.27,18.05a.84.84,0,0,0,.77,0l4.82-2.79c.21-.12.2-.32,0-.44l-5.58-3.22a.84.84,0,0,0-.77,0l-4.83,2.79c-.2.11-.19.31,0,.44Zm38.32-22.13a.84.84,0,0,0,.77,0l4.83-2.79c.2-.11.19-.31,0-.44L182.37,267a.87.87,0,0,0-.77,0l-4.82,2.79c-.21.12-.2.32,0,.44Zm-14.1,8.15a.87.87,0,0,0,.77,0l4.83-2.78c.2-.12.19-.32,0-.45l-5.58-3.22a.84.84,0,0,0-.77,0l-4.83,2.78c-.2.12-.19.32,0,.45Zm1.63,40.59a.84.84,0,0,0-.77,0l-7.42,4.28c-.2.12-.19.32,0,.45l5.58,3.22a.87.87,0,0,0,.77,0l7.42-4.28c.2-.12.19-.32,0-.45ZM158.16,287.4a.84.84,0,0,0,.77,0l4.83-2.78c.2-.12.19-.32,0-.45L158.15,281a.87.87,0,0,0-.77,0l-4.82,2.78c-.21.12-.2.32,0,.45Zm-7,4.07a.87.87,0,0,0,.77,0l4.82-2.79c.21-.12.2-.32,0-.44L151.1,285a.84.84,0,0,0-.77,0l-4.83,2.78c-.2.12-.19.32,0,.45Zm149.44-44.74a.87.87,0,0,0-.77,0l-11.88,6.86c-.2.12-.19.32,0,.45l5.58,3.22a.87.87,0,0,0,.77,0l11.87-6.86c.21-.11.2-.31,0-.44Zm-15.59,9a.84.84,0,0,0-.77,0l-4.82,2.79c-.21.12-.2.32,0,.44l5.58,3.22a.84.84,0,0,0,.77,0l4.83-2.79c.2-.11.19-.31,0-.44Zm-95.52,52.84,4.83-2.78c.2-.12.19-.32,0-.45l-5.58-3.22a.87.87,0,0,0-.77,0l-4.82,2.78c-.21.12-.19.32,0,.45l5.58,3.22A.82.82,0,0,0,189.44,308.57Zm81.42-44.7a.84.84,0,0,0-.77,0l-4.83,2.78c-.2.12-.19.32,0,.45l5.58,3.22a.87.87,0,0,0,.77,0l4.82-2.78c.21-.12.2-.32,0-.45Zm36.74-21.21a.84.84,0,0,0-.77,0L302,245.43c-.2.12-.19.32,0,.44l5.58,3.22a.84.84,0,0,0,.77,0l4.82-2.79c.21-.11.2-.31,0-.44Zm12.63-.85L306.68,234a.84.84,0,0,0-.77,0l-4.82,2.79c-.21.11-.2.31,0,.44L314.66,245a.84.84,0,0,0,.77,0l4.83-2.79C320.46,242.13,320.45,241.94,320.23,241.81Zm-75.72,37.27a.87.87,0,0,0-.77,0l-5.94,3.43c-.21.11-.19.31,0,.44l5.58,3.22a.84.84,0,0,0,.77,0l5.93-3.43c.21-.12.2-.32,0-.44Zm17.81-10.28a.87.87,0,0,0-.77,0l-7.42,4.29c-.21.12-.19.32,0,.44l5.58,3.22a.84.84,0,0,0,.77,0l7.42-4.29c.2-.11.19-.31,0-.44Zm-34.14,19.71a.84.84,0,0,0-.77,0L187.7,311.42c-.21.12-.19.32,0,.45l5.57,3.22a.87.87,0,0,0,.77,0l39.71-22.92c.21-.12.2-.32,0-.45Zm-41.94,24.21a.87.87,0,0,0-.77,0l-5.94,3.43c-.2.11-.19.31,0,.44l5.58,3.22a.84.84,0,0,0,.77,0l5.94-3.43c.2-.12.19-.32,0-.44Zm50.1-28.92a.84.84,0,0,0-.77,0l-5.93,3.43c-.21.12-.2.32,0,.44l5.58,3.23a.87.87,0,0,0,.77,0l5.94-3.43c.2-.12.19-.31,0-.44Zm-58.26,33.64a.84.84,0,0,0-.77,0l-5.94,3.43c-.21.12-.19.32,0,.44l5.58,3.23a.85.85,0,0,0,.76,0l5.94-3.43c.21-.12.2-.31,0-.44Zm74.59-43.07a.87.87,0,0,0-.77,0L246,277.78c-.2.12-.19.32,0,.45l5.58,3.22a.84.84,0,0,0,.77,0l5.94-3.42c.2-.12.19-.32,0-.45Zm25.24-14.57a.87.87,0,0,0-.77,0l-4.83,2.79c-.2.12-.19.32,0,.44l5.58,3.23a.87.87,0,0,0,.77,0l4.82-2.78c.21-.12.2-.32,0-.45Zm15.45-11.22,4.82-2.79c.21-.11.2-.31,0-.44l-5.58-3.22a.84.84,0,0,0-.77,0L287,244.9c-.2.12-.19.32,0,.44l5.58,3.22A.84.84,0,0,0,293.36,248.58Zm-31.53-.2,4.83-2.79c.2-.12.19-.32,0-.44l-5.58-3.22a.84.84,0,0,0-.77,0l-4.82,2.78c-.21.12-.2.32,0,.45l5.58,3.22A.87.87,0,0,0,261.83,248.38Zm-16,27.63,14.1-8.15c.2-.11.19-.31,0-.44l-5.58-3.22a.84.84,0,0,0-.77,0l-14.1,8.14c-.21.12-.19.32,0,.45l5.58,3.22A.87.87,0,0,0,245.86,276Zm39.68-23.38a.84.84,0,0,0,.77,0l4.82-2.78c.21-.12.19-.32,0-.45l-5.57-3.22a.87.87,0,0,0-.77,0L279.93,249c-.2.12-.19.32,0,.44Zm-7.2-4.58,4.82-2.79c.21-.11.2-.31,0-.44l-5.57-3.22a.84.84,0,0,0-.77,0L272,244.37c-.2.12-.19.32,0,.44l5.58,3.22A.84.84,0,0,0,278.34,248.05Zm-39.54,32,4.83-2.79c.2-.12.19-.32,0-.44L238,273.63a.84.84,0,0,0-.77,0l-4.82,2.79c-.21.11-.19.31,0,.44l5.57,3.22A.87.87,0,0,0,238.8,280.08ZM270,261.63a.84.84,0,0,0,.77,0l4.82-2.79c.21-.11.2-.31,0-.44l-5.58-3.22a.84.84,0,0,0-.77,0L264.34,258c-.2.12-.19.32,0,.44Zm-66.4,38.8,4.82-2.78c.21-.12.19-.32,0-.45L202.77,294a.84.84,0,0,0-.77,0l-4.83,2.78c-.2.12-.19.32,0,.45l5.58,3.22A.87.87,0,0,0,203.55,300.43Zm7-4.07,4.82-2.78c.21-.12.2-.32,0-.45l-5.58-3.22a.87.87,0,0,0-.77,0l-4.83,2.79c-.2.12-.19.32,0,.44l5.58,3.22A.84.84,0,0,0,210.6,296.36Zm-14.1,8.14,4.82-2.78c.21-.12.19-.32,0-.45l-5.58-3.22a.87.87,0,0,0-.77,0l-4.82,2.78c-.2.12-.19.32,0,.45l5.58,3.22A.87.87,0,0,0,196.5,304.5Zm28.2-16.28,4.83-2.79c.2-.12.19-.31,0-.44l-5.58-3.22a.84.84,0,0,0-.77,0l-4.82,2.79c-.21.12-.2.31,0,.44l5.58,3.22A.84.84,0,0,0,224.7,288.22Zm-7,4.07,4.82-2.79c.21-.11.2-.31,0-.44l-5.58-3.22a.84.84,0,0,0-.77,0l-4.83,2.79c-.2.12-.19.32,0,.44l5.58,3.22A.84.84,0,0,0,217.65,292.29Zm14.1-8.14,4.83-2.79c.2-.12.19-.32,0-.44L231,277.7a.84.84,0,0,0-.77,0l-4.82,2.79c-.21.11-.2.31,0,.44l5.58,3.22A.84.84,0,0,0,231.75,284.15ZM264,223.92a.84.84,0,0,0,.77,0l4.83-2.79c.2-.12.19-.31,0-.44l-1.49-.86a.84.84,0,0,0-.77,0l-4.82,2.78c-.2.12-.19.32,0,.45Zm-34.69,22.4a.87.87,0,0,0,.77,0l4.82-2.78c.21-.12.2-.32,0-.45l-5.57-3.22a.84.84,0,0,0-.77,0l-4.83,2.78c-.2.12-.19.32,0,.45Zm14.1-8.15a.84.84,0,0,0,.77,0L249,235.4c.21-.11.2-.31,0-.44l-5.58-3.22a.87.87,0,0,0-.77,0l-4.83,2.79c-.2.12-.19.32,0,.44Zm-22.71,13.12a.87.87,0,0,0,.77,0l4.82-2.78c.21-.12.19-.32,0-.45l-5.57-3.22a.87.87,0,0,0-.77,0l-4.83,2.78c-.2.12-.19.32,0,.45Zm15.66-9a.87.87,0,0,0,.77,0l4.82-2.78c.21-.12.2-.32,0-.45l-5.58-3.22a.87.87,0,0,0-.77,0l-4.83,2.79c-.2.12-.19.32,0,.44Zm-29.76,17.18a.85.85,0,0,0,.76,0l4.83-2.79c.2-.12.19-.32,0-.44L206.59,253a.87.87,0,0,0-.77,0L201,255.76c-.21.12-.19.32,0,.45Zm7-4.07a.84.84,0,0,0,.77,0l4.82-2.78c.21-.12.19-.32,0-.45l-5.58-3.22a.85.85,0,0,0-.76,0l-4.83,2.78c-.2.12-.19.32,0,.45Zm36.25-23.3a.84.84,0,0,0,.77,0l4.82-2.79c.21-.11.2-.31,0-.44L254,228a.87.87,0,0,0-.77,0l-4.82,2.78c-.21.12-.2.32,0,.45Zm21.15-12.21a.84.84,0,0,0,.77,0l4.83-2.79c.2-.12.19-.32,0-.44l-1.48-.86a.87.87,0,0,0-.77,0l-4.83,2.79c-.2.12-.19.32,0,.44Zm11.72,6.77a.87.87,0,0,0,.77,0l4.83-2.78c.2-.12.19-.32,0-.45l-5.58-3.22a.87.87,0,0,0-.77,0L277.18,223c-.21.12-.2.32,0,.45Zm17.63,17.89,4.82-2.79c.21-.12.2-.31,0-.44l-5.58-3.22a.84.84,0,0,0-.77,0L294,240.83c-.2.12-.19.31,0,.44l5.58,3.22A.84.84,0,0,0,300.41,244.51ZM257,228a.84.84,0,0,0,.77,0l4.82-2.79c.21-.11.2-.31,0-.44l-1.49-.86a.87.87,0,0,0-.77,0l-4.82,2.78c-.21.12-.19.32,0,.45ZM199.55,263.5a.84.84,0,0,0,.77,0l4.83-2.79c.2-.12.19-.32,0-.44l-5.58-3.22a.84.84,0,0,0-.77,0L194,259.84c-.21.11-.19.31,0,.44Z" style="fill:#455a64"></path><path d="M230.82,305.83l47.61-27.49a5.74,5.74,0,0,1,5.2,0l27.3,15.76c1.44.83,1.44,2.17,0,3l-47.61,27.49a5.74,5.74,0,0,1-5.2,0l-27.3-15.76C229.39,308,229.39,306.65,230.82,305.83Z" style="fill:#263238"></path></g></g><g id="freepik--Shield--inject-9"><g id="freepik--shield--inject-9"><path d="M318.38,173.64h0l-.06,0-8.13-4.68c-.47-.21-1.16,0-2,.62-7.56,5.78-17.73,7.58-26,4.94a20.65,20.65,0,0,1-1.52-1.58l-.15-.17h0a3.19,3.19,0,0,0-.84-.69l-.14-.08-8.14-4.67c-.93-.44-1.77,0-2.33,1.38-7.86,19.53-24.61,39.32-35.78,44.27a6.32,6.32,0,0,0-2.2,1.64,4.69,4.69,0,0,0-1.24,3.2l1.61,43.85c0,12.67,5.35,26.05,16.26,32.56l8.42,4.86.15.08a29.62,29.62,0,0,0,14.92,3.79c1.17,0,2.36-.05,3.59-.17a12,12,0,0,0,6.36-3.18c24.41-25.21,36.28-59.33,36.28-78.21L319,175.48C319.06,174.49,318.82,173.88,318.38,173.64Z" style="fill:#92E3A9"></path><path d="M319,175.48l-1.61,45.87c0,18.88-11.87,53-36.28,78.21a12,12,0,0,1-6.36,3.18c-1.23.12-2.42.17-3.59.17a29.62,29.62,0,0,1-14.92-3.79l-.15-.08-.29-.18c-10.91-6.51-16.26-19.89-16.26-32.56L238,222.45a4.69,4.69,0,0,1,1.24-3.2,6.32,6.32,0,0,1,2.2-1.64c11.17-5,27.92-24.74,35.78-44.27.56-1.38,1.41-1.83,2.34-1.39h0l.14.08a3.19,3.19,0,0,1,.84.69h0l.15.17c8.34,9.71,24.74,9.7,35.69,1.32.83-.63,1.52-.83,2-.62l.06,0h0C318.82,173.88,319.06,174.49,319,175.48Z" style="fill:#92E3A9"></path><path d="M318.33,173.58c-.47-.21-1.16,0-2,.62-10.31,7.89-25.46,8.36-34.15.26,8.31,2.65,18.46.85,26-4.94.83-.63,1.52-.83,2-.62Z" style="fill:#fff;opacity:0.4"></path><path d="M279.51,171.94c-.93-.44-1.78,0-2.34,1.39-7.86,19.53-24.61,39.32-35.78,44.27a6.32,6.32,0,0,0-2.2,1.64,5.21,5.21,0,0,0-.56.77l-8.12-4.69a5.63,5.63,0,0,1,.55-.76,4.17,4.17,0,0,1,.36-.37h0l.14-.14.14-.13a6,6,0,0,1,1.55-1c11.17-4.95,27.92-24.74,35.78-44.27.56-1.38,1.4-1.82,2.33-1.38Z" style="fill:#fff;opacity:0.4"></path><path d="M231.43,214.17a.86.86,0,0,1,.14-.13l-.14.14S231.42,214.17,231.43,214.17Z" style="fill:#92E3A9"></path><path d="M231.57,214l-.14.14s0,0,0,0A.86.86,0,0,1,231.57,214Z" style="opacity:0.15"></path><path d="M256.26,299.11l-.15-.07-8.42-4.87c-10.91-6.51-16.26-19.89-16.26-32.56l-1.61-43.85a4.35,4.35,0,0,1,.69-2.44l8.12,4.69a4.38,4.38,0,0,0-.68,2.43l1.61,43.85c0,12.67,5.35,26,16.26,32.56l.29.18Z" style="opacity:0.15"></path><path d="M285,258.77l-13,7.5,2-23.51c-1.55-.82-2.55-2.84-2.55-5.75,0-5.17,3.15-11.19,7-13.43s7,.14,7,5.31a17.67,17.67,0,0,1-2.54,8.69Z" style="fill:#455a64"></path><polygon points="284.98 258.77 273.21 251.97 271.99 266.27 284.98 258.77" style="fill:#37474f"></polygon><path d="M278.49,223.58c-2.55,1.47-4.76,4.55-6,7.95L283,237.58h0a17.67,17.67,0,0,0,2.54-8.69C285.51,223.72,282.37,221.34,278.49,223.58Z" style="fill:#37474f"></path></g></g><g id="freepik--Key--inject-9"><g id="freepik--key--inject-9"><path d="M115.92,395.34v3.9c0,4.6,3,9.19,9.08,12.7,9.14,5.27,22.56,6.56,33.81,3.87l10.44,6,8-1.82,5.47,3.17.3,6.61,3,1.71,7.41.65,5.32,3v3.73l6.69,3.85h17l6.09-3.51v-3.94l-54.34-27.43a12.54,12.54,0,0,0,3.76-8.54v-4c-.82-3.82-4-5.79-9.07-8.72-12.11-7-31.73-7-43.84,0C119.56,389.77,116.47,391.23,115.92,395.34Zm16.64-4.57a13.73,13.73,0,0,1,12.42,0c3.43,2,3.43,5.19,0,7.17a13.73,13.73,0,0,1-12.42,0C129.13,396,129.13,392.75,132.56,390.77Z" style="fill:#92E3A9"></path><path d="M115.92,395.34v3.9c0,4.6,3,9.19,9.08,12.7,9.14,5.27,22.56,6.56,33.81,3.87l10.44,6,8-1.82,5.47,3.17.3,6.61,3,1.71,7.41.65,5.32,3v3.73l6.69,3.85h17l6.09-3.51v-3.94l-54.34-27.43a12.54,12.54,0,0,0,3.76-8.54v-4c-.82-3.82-4-5.79-9.07-8.72-12.11-7-31.73-7-43.84,0C119.56,389.77,116.47,391.23,115.92,395.34Zm16.64-4.57a13.73,13.73,0,0,1,12.42,0c3.43,2,3.43,5.19,0,7.17a13.73,13.73,0,0,1-12.42,0C129.13,396,129.13,392.75,132.56,390.77Z" style="opacity:0.1"></path><path d="M125,408c9.14,5.28,22.56,6.57,33.81,3.87l10.44,6,8-1.81,5.47,3.16.3,6.62,3,1.7,7.41.65,5.78,3.22-.46,3.48,6.69,3.86h17l6.09-3.51-54.34-31.38c6.4-6.79,4.64-15.46-5.31-21.2-12.11-7-31.73-7-43.84,0S112.89,401,125,408Zm7.56-21.17a13.73,13.73,0,0,1,12.42,0c3.43,2,3.43,5.19,0,7.17a13.73,13.73,0,0,1-12.42,0C129.13,392,129.13,388.8,132.56,386.82Z" style="fill:#92E3A9"></path><path d="M146.92,409.8c-7.69,0-14.86-1.7-20.2-4.78-4.68-2.7-7.37-6.23-7.37-9.68s2.69-7,7.37-9.69c5.34-3.08,12.51-4.78,20.2-4.78s14.86,1.7,20.2,4.78c4.68,2.71,7.37,6.23,7.37,9.69s-2.69,7-7.37,9.68C161.78,408.1,154.61,409.8,146.92,409.8Zm0-27.55c-7.45,0-14.38,1.63-19.52,4.59-4.24,2.45-6.67,5.55-6.67,8.5s2.43,6,6.67,8.49c5.14,3,12.07,4.6,19.52,4.6s14.38-1.64,19.52-4.6c4.24-2.45,6.67-5.55,6.67-8.49s-2.43-6-6.67-8.5C161.3,383.88,154.37,382.25,146.92,382.25Z" style="opacity:0.30000000000000004"></path><path d="M135.76,412V416a52.57,52.57,0,0,0,23.05-.16v-3.94A52.72,52.72,0,0,1,135.76,412Z" style="opacity:0.1"></path><polygon points="169.25 417.89 169.25 421.84 177.27 420.02 177.27 416.08 169.25 417.89" style="opacity:0.1"></polygon><polygon points="182.74 419.24 182.74 423.19 183.04 429.8 183.04 425.86 182.74 419.24" style="opacity:0.1"></polygon><polygon points="185.99 427.56 185.99 431.51 193.4 432.16 193.4 428.21 185.99 427.56" style="opacity:0.1"></polygon><rect x="205.41" y="438.77" width="16.99" height="3.95" style="opacity:0.1"></rect><polygon points="228.49 435.25 228.49 439.2 222.4 442.71 222.4 438.77 225.06 437.23 225.06 438.93 226.54 438.08 226.54 436.36 228.49 435.25" style="opacity:0.15"></polygon><polygon points="226.54 436.36 225.06 437.23 225.06 438.93 226.54 438.08 226.54 436.36" style="fill:#92E3A9"></polygon><polygon points="226.54 436.36 226.54 438.08 170.81 405.9 172.28 405.04 226.54 436.36" style="opacity:0.15"></polygon><polygon points="172.28 405.04 172.28 406.76 170.81 405.9 172.28 405.04" style="opacity:0.15"></polygon></g></g><g id="freepik--Character--inject-9"><g id="freepik--character--inject-9"><path d="M414.53,288.56c.71-26-1.38-32.29-8.32-37.06l-2.68,15.09s3.16,17.79,2.82,23.71c-.3,5.21-.81,11.72-2,15.92a3.2,3.2,0,0,1-1.38,1.79,18.06,18.06,0,0,0-3.81,3.63c-1,1.09-1.92,1.36-1.79,1.71a1.72,1.72,0,0,0,2.2.77,11.26,11.26,0,0,0,2.5-1.36,15.7,15.7,0,0,1-2.56,4.41c-2.48,3-2.59,4.9,2.41,4.95,3.14,0,5.64-1.91,8-8.81a56.31,56.31,0,0,0,2.2-7.75C413.27,298.73,414.42,292.75,414.53,288.56Z" style="fill:#b16668"></path><path d="M400.38,249.52a10,10,0,0,1,10.71,5.42c2.91,5.19,3.62,14.13,4,23,0,0-5.77,4.83-12.69,2.46Z" style="fill:#92E3A9"></path><path d="M400.38,249.52a10,10,0,0,1,10.71,5.42c2.91,5.19,3.62,14.13,4,23,0,0-5.77,4.83-12.69,2.46Z" style="opacity:0.7000000000000001"></path><path d="M410.12,392.78c.52.2.65,1.2.73,3.19.06,1.5.39,4.13-1.38,4.66s-4.35.25-5.48-1.17a70,70,0,0,0-4.38-5.49c-1.74-1.87-3.63-3.63-4.34-6.26-.63-2.37-.1-3.4,1.52-4.09,2.23-1,5.73,2.15,7.48,2.64C405.77,386.68,409.59,392.58,410.12,392.78Z" style="fill:#263238"></path><path d="M410.12,390.93v2.45a6,6,0,0,1-6.18.16c-.11-.23-.64-3.49-.64-3.49Z" style="fill:#b16668"></path><path d="M390.32,406.86a39.31,39.31,0,0,1,1.08,4c.3,1.48.73,4,.22,5.06s-2.54,1.83-5.67,1.81c-2,0-5.18,1.36-7.34,2.57s-6.88,1.74-9.25,1.46c-2.78-.33-5.66-1.94-6.11-3.09s.14-2.35,6.71-5.15c.06,0,9.12-3,12.29-6.47Z" style="fill:#263238"></path><path d="M390.32,404.22v2.85c0,1-1.21,2.58-4.38,2.47-2.22-.08-3.78-.68-3.69-2.51v-2.65Z" style="fill:#b16668"></path><path d="M411.71,358.5a66.49,66.49,0,0,0-2.89-12.73s.87-11,1.29-21.39c.45-11.25,0-25.38.19-28.19,0,0-36.29-7.34-36.94,5.66s1.44,46.09,1.87,51.8,1.41,10.77,2.59,20,4.43,30.71,4.43,30.71a8.57,8.57,0,0,0,8.07-.16s2.56-26,2.29-32.59a56.43,56.43,0,0,0-2.5-14.38s.69-10.72,1.3-20,1.25-13.81,1.39-17.86l.78-.39s.8,16.09,1.23,21.8,1.33,11.18,3,21.79c1.44,9.21,5.71,28.68,5.71,28.68,4.14,2.24,6.62-.3,6.62-.3S412.82,366.49,411.71,358.5Z" style="fill:#37474f"></path><path d="M392.8,319.35S401.6,315,406,311.1c0,0-4.09,5.76-9.46,8.32,0,0-1.91,20-1.9,19.58l-1.11-19.68Z" style="fill:#263238"></path><polygon points="384.96 245.41 387.11 257.23 397.79 256.44 395.55 243.05 384.96 245.41" style="fill:#b16668"></polygon><path d="M409.06,255.58c-1.05-3.21-5.13-6.71-9.21-6A120.32,120.32,0,0,0,382,254.09c-3.73,1.33-7.14,4.56-7.45,16.85,0,0-1.25,28.64-1.27,34.18a45.3,45.3,0,0,0,24.53,2.42c11.22-2.45,12.58-7.11,12.58-7.11s.14-20.6-.2-29.49C409.89,263.38,409.79,257.79,409.06,255.58Z" style="fill:#92E3A9"></path><g style="opacity:0.15"><path d="M409.06,255.58c-1.05-3.21-5.13-6.71-9.21-6A120.32,120.32,0,0,0,382,254.09c-3.73,1.33-7.14,4.56-7.45,16.85,0,0-1.25,28.64-1.27,34.18a45.3,45.3,0,0,0,24.53,2.42c11.22-2.45,12.58-7.11,12.58-7.11s.14-20.6-.2-29.49C409.89,263.38,409.79,257.79,409.06,255.58Z"></path></g><path d="M376.73,231s-2.71,4.32-2.38,4.73,2.4.74,2.4.74Z" style="fill:#9a4a4d"></path><path d="M384.24,219.09c-5.64,1.32-7.22,3.85-7.55,12.88-.35,9.42.68,12.36,1.94,13.6.86.84,5.5.89,7.83.19,2.91-.87,9.48-3.37,12.47-8.17,3.52-5.66,4.31-13.23.34-16.24C393.67,217.11,386.54,218.55,384.24,219.09Z" style="fill:#b16668"></path><path d="M376.75,221.44a11.52,11.52,0,0,0,5.25,4.19c1.08,1.23.49,6,2.39,6.8,0,0,.82-3.5,3.76-3.12s3.45,4.12,1.64,6.45-3.56,1.49-3.56,1.49.2,5,2.47,7.74c0,0,2.52.76,7.12-.33,2.82-.67,6.75-4.3,8.35-8.09,3.39-8,3.47-15.17-1.64-17.2-.63-3.65-3.55-5.22-6.85-5.9-7.11-1.47-11.69,3-17.16,2.58C375.39,215.83,374.81,218.11,376.75,221.44Z" style="fill:#263238"></path><path d="M402.64,220.59l3.35-2.07a2,2,0,1,0-3.35,2.07Z" style="fill:#263238"></path><path d="M336.84,275.37c1.75.78,22.44,16.06,25.66,14.28s19.77-21.11,19.77-21.11a13.34,13.34,0,0,0,0-14.5s-5.3,1-8.08,5.18-14.76,19.23-14.76,19.23q-4.44-2.22-8.86-4.5c-2.42-1.26-4.85-2.51-7.22-3.86a9.39,9.39,0,0,1-1.87-1.15c-1.17-1.16-1-4-.94-5.48,0-.71,0-1.42.1-2.13.1-.87.27-3-1.3-2.32a2,2,0,0,0-.75.62,3.9,3.9,0,0,0-.56,1.07c-.29.92-.2,1.93-.47,2.86a.87.87,0,0,1-.19.37.72.72,0,0,1-.49.15c-2.28-.07-4.44-3.27-5.49-5a4.5,4.5,0,0,0-1.73-2c-1.24-.59-2.74.25-3.55,1.37a7.18,7.18,0,0,0-1.12,5,10,10,0,0,0,3,6.3A30.65,30.65,0,0,0,336.84,275.37Z" style="fill:#b16668"></path><path d="M384,253.42c-2.28.26-6.07.43-9.79,4.64C369.83,263,364.12,271,364.12,271a12.66,12.66,0,0,0,10,9.42s7.83-8,10-12.44S386.65,256.4,384,253.42Z" style="fill:#92E3A9"></path><path d="M384,253.42c-2.28.26-6.07.43-9.79,4.64C369.83,263,364.12,271,364.12,271a12.66,12.66,0,0,0,10,9.42s7.83-8,10-12.44S386.65,256.4,384,253.42Z" style="opacity:0.7000000000000001"></path></g></g></svg>