<svg data-v-423bf9ae="" xmlns="http://www.w3.org/2000/svg" viewBox="0 0 547 110" class="iconLeftSlogan"><!----><!----><!----><g data-v-423bf9ae="" id="b23b3963-4ef0-4fee-8fd5-58b46c928a25" fill="#008080" transform="matrix(5.3191490620891875,0,0,5.3191490620891875,126.2143585031452,-14.893617835468667)"><path d="M6.80 9.35C6.61 8.66 6.24 8.10 5.69 7.67C5.12 7.23 4.49 7.01 3.78 7.01C2.90 7.01 2.15 7.33 1.54 7.97C0.93 8.59 0.63 9.34 0.63 10.22C0.63 11.09 0.93 11.84 1.54 12.48C1.82 12.78 2.15 13.01 2.53 13.18C2.92 13.35 3.30 13.44 3.70 13.44C4.09 13.44 4.44 13.39 4.75 13.28C5.73 12.94 6.40 12.27 6.75 11.28L5.64 11.28C5.46 11.63 5.20 11.90 4.87 12.11C4.53 12.32 4.17 12.42 3.78 12.42C3.18 12.42 2.67 12.20 2.26 11.77C1.85 11.33 1.64 10.82 1.64 10.22C1.64 9.63 1.85 9.12 2.26 8.69C2.45 8.49 2.68 8.33 2.94 8.21C3.20 8.09 3.51 8.04 3.88 8.04C4.24 8.04 4.60 8.16 4.96 8.40C5.31 8.64 5.57 8.96 5.74 9.35ZM13.38 10.19C13.38 10.80 13.16 11.32 12.73 11.76C12.29 12.20 11.76 12.42 11.14 12.42C10.53 12.42 10.00 12.20 9.56 11.76C9.12 11.32 8.90 10.80 8.90 10.19C8.90 9.58 9.12 9.05 9.56 8.61C10.00 8.17 10.53 7.95 11.14 7.95C11.76 7.95 12.29 8.17 12.73 8.61C13.16 9.05 13.38 9.58 13.38 10.19ZM14.36 10.19C14.36 9.31 14.05 8.55 13.42 7.92C12.79 7.29 12.03 6.97 11.14 6.97C10.26 6.97 9.50 7.29 8.87 7.92C8.24 8.55 7.92 9.31 7.92 10.19C7.92 11.08 8.24 11.84 8.87 12.46C9.50 13.09 10.26 13.40 11.14 13.40C12.03 13.40 12.78 13.09 13.42 12.46C14.05 11.84 14.36 11.08 14.36 10.19ZM20.94 10.22C20.94 10.82 20.74 11.34 20.32 11.79C19.90 12.24 19.39 12.46 18.77 12.46C18.16 12.46 17.64 12.24 17.23 11.79C16.81 11.34 16.60 10.82 16.60 10.22C16.60 9.62 16.81 9.10 17.23 8.65C17.64 8.20 18.16 7.98 18.77 7.98C19.39 7.98 19.90 8.20 20.32 8.65C20.74 9.10 20.94 9.62 20.94 10.22ZM21.92 13.30L21.92 2.80L20.94 2.80L20.94 8.19C20.89 8.12 20.83 8.05 20.77 7.98C20.19 7.33 19.47 7.00 18.62 7.00C17.77 7.00 17.05 7.33 16.47 7.98C15.91 8.61 15.62 9.36 15.62 10.22C15.62 11.08 15.91 11.83 16.47 12.46C17.05 13.11 17.77 13.44 18.62 13.44C19.47 13.44 20.19 13.11 20.77 12.46C20.83 12.39 20.89 12.32 20.94 12.25L20.94 13.30ZM30.04 10.08C30.04 9.23 29.72 8.50 29.07 7.88C28.43 7.28 27.69 6.97 26.82 6.97C25.94 6.97 25.18 7.29 24.55 7.92C23.92 8.55 23.60 9.31 23.60 10.19C23.60 11.08 23.92 11.84 24.55 12.46C24.84 12.75 25.18 12.98 25.57 13.15C25.96 13.31 26.43 13.40 26.97 13.40C27.52 13.40 28.05 13.23 28.58 12.89C29.11 12.55 29.50 12.08 29.76 11.49L28.64 11.49C28.43 11.78 28.16 12.01 27.84 12.17C27.52 12.34 27.18 12.42 26.82 12.42C26.30 12.42 25.82 12.25 25.40 11.90C24.98 11.56 24.72 11.13 24.63 10.60L30.04 10.60ZM29.01 9.76L24.64 9.76C24.70 9.50 24.79 9.26 24.93 9.04C25.40 8.31 26.03 7.95 26.82 7.95C27.35 7.95 27.81 8.12 28.22 8.46C28.63 8.80 28.90 9.23 29.01 9.76ZM37.67 14.08L40.60 7.14L39.51 7.14L37.66 11.89L35.67 6.82L33.68 11.89L31.84 7.14L30.74 7.14L33.70 14.08L35.67 9.11ZM42.78 5.01C42.66 4.89 42.52 4.83 42.34 4.83C42.17 4.83 42.02 4.89 41.90 5.01C41.78 5.13 41.72 5.28 41.72 5.45C41.72 5.63 41.78 5.77 41.90 5.89C42.02 6.02 42.17 6.08 42.34 6.08C42.52 6.08 42.66 6.02 42.78 5.89C42.91 5.77 42.97 5.63 42.97 5.45C42.97 5.28 42.91 5.13 42.78 5.01ZM42.84 13.30L42.84 7.14L41.86 7.14L41.86 13.30ZM44.23 8.05L45.77 8.05L45.77 13.30L46.75 13.30L46.75 8.05L48.27 8.05L48.27 7.14L46.75 7.14L46.75 4.75L45.77 4.75L45.77 7.14L44.23 7.14ZM50.58 13.30L50.58 10.72C50.58 9.87 50.73 9.22 51.02 8.77C51.19 8.52 51.40 8.33 51.66 8.20C51.92 8.06 52.26 7.99 52.68 7.99C53.10 7.99 53.40 8.14 53.59 8.42C53.77 8.71 53.86 9.05 53.86 9.45L53.86 13.30L54.84 13.30L54.84 9.45C54.84 8.74 54.65 8.16 54.28 7.72C54.09 7.50 53.86 7.33 53.59 7.20C53.32 7.08 52.97 7.01 52.53 7.01C52.09 7.01 51.70 7.13 51.37 7.36C51.05 7.57 50.79 7.85 50.58 8.20L50.58 2.80L49.60 2.80L49.60 13.30ZM57.62 12.42C57.37 12.26 57.20 11.98 57.09 11.58L56.06 11.58C56.27 12.85 57.09 13.48 58.52 13.48C58.85 13.48 59.16 13.44 59.45 13.36C59.74 13.28 60.00 13.17 60.24 13.01C60.72 12.69 60.95 12.20 60.95 11.54C60.95 10.88 60.64 10.39 60.00 10.09C59.73 9.96 59.43 9.86 59.12 9.79C58.81 9.72 58.52 9.64 58.25 9.56C57.97 9.47 57.75 9.37 57.56 9.24C57.38 9.11 57.29 8.91 57.29 8.63C57.29 8.35 57.40 8.15 57.62 8.01C57.84 7.88 58.10 7.81 58.41 7.81C58.71 7.81 58.97 7.87 59.18 7.98C59.40 8.09 59.56 8.32 59.66 8.67L60.71 8.67C60.58 8.04 60.32 7.61 59.92 7.37C59.53 7.12 59.03 7.00 58.43 7.00C57.84 7.00 57.33 7.16 56.89 7.47C56.46 7.79 56.25 8.25 56.25 8.86C56.25 9.17 56.33 9.43 56.49 9.66C56.64 9.88 56.88 10.07 57.20 10.22C57.47 10.34 57.77 10.44 58.08 10.52C58.39 10.59 58.68 10.68 58.95 10.76C59.60 10.97 59.92 11.27 59.92 11.66C59.92 12.33 59.47 12.67 58.57 12.67C58.18 12.67 57.87 12.59 57.62 12.42ZM65.52 8.41L65.52 7.14C65.32 7.06 65.12 7.01 64.90 7.01C64.21 7.01 63.71 7.40 63.38 8.16L63.34 8.41L63.34 7.14L62.36 7.14L62.36 13.30L63.34 13.30L63.34 10.22C63.34 9.71 63.45 9.26 63.69 8.86C63.81 8.64 63.96 8.47 64.14 8.32C64.32 8.18 64.54 8.11 64.80 8.11C65.05 8.11 65.29 8.21 65.52 8.41ZM71.61 10.22C71.61 10.82 71.40 11.34 70.99 11.79C70.57 12.24 70.05 12.46 69.44 12.46C68.83 12.46 68.31 12.24 67.89 11.79C67.48 11.34 67.27 10.82 67.27 10.22C67.27 9.62 67.48 9.10 67.89 8.65C68.31 8.20 68.83 7.98 69.44 7.98C70.05 7.98 70.57 8.20 70.99 8.65C71.40 9.10 71.61 9.62 71.61 10.22ZM72.59 13.30L72.59 7.14L71.61 7.14L71.61 8.19C71.56 8.12 71.50 8.05 71.44 7.98C70.85 7.33 70.14 7.00 69.29 7.00C68.44 7.00 67.72 7.33 67.14 7.98C66.57 8.61 66.29 9.36 66.29 10.22C66.29 11.08 66.57 11.83 67.14 12.46C67.72 13.11 68.44 13.44 69.29 13.44C70.14 13.44 70.85 13.11 71.44 12.46C71.50 12.39 71.56 12.32 71.61 12.25L71.61 13.30ZM75.58 12.42C75.33 12.26 75.16 11.98 75.05 11.58L74.02 11.58C74.23 12.85 75.05 13.48 76.48 13.48C76.81 13.48 77.12 13.44 77.41 13.36C77.70 13.28 77.96 13.17 78.20 13.01C78.68 12.69 78.92 12.20 78.92 11.54C78.92 10.88 78.60 10.39 77.96 10.09C77.69 9.96 77.40 9.86 77.08 9.79C76.77 9.72 76.48 9.64 76.21 9.56C75.94 9.47 75.71 9.37 75.53 9.24C75.34 9.11 75.25 8.91 75.25 8.63C75.25 8.35 75.36 8.15 75.58 8.01C75.80 7.88 76.06 7.81 76.37 7.81C76.67 7.81 76.93 7.87 77.15 7.98C77.36 8.09 77.52 8.32 77.62 8.67L78.67 8.67C78.54 8.04 78.28 7.61 77.89 7.37C77.49 7.12 76.99 7.00 76.40 7.00C75.80 7.00 75.29 7.16 74.86 7.47C74.43 7.79 74.21 8.25 74.21 8.86C74.21 9.17 74.29 9.43 74.45 9.66C74.61 9.88 74.84 10.07 75.16 10.22C75.44 10.34 75.73 10.44 76.04 10.52C76.35 10.59 76.65 10.68 76.92 10.76C77.56 10.97 77.88 11.27 77.88 11.66C77.88 12.33 77.43 12.67 76.53 12.67C76.15 12.67 75.83 12.59 75.58 12.42Z"></path></g><!----><g data-v-423bf9ae="" id="8d6c5857-d461-4c9b-90c5-24d67ad7cd2d" transform="matrix(1.1033555772569446,0,0,1.1033555772569446,-3.1419726159423647,-0.9048750541897306)" stroke="none" fill="#008080"><path d="M81.263 1.182h-56.99c-15.275 0-20.797 5.312-20.797 21.18v57.192c0 15.373 5.522 20.93 20.796 20.93h56.991c15.403 0 21.515-5.557 21.515-20.93V22.362c0-15.868-5.912-21.18-21.515-21.18zM61.226 29.796h6.995L45.688 71.87h-8.092M70.12 36.538l.009-6.695 22.37 17.635c-.032 2.082.032 4.482 0 6.564L70.13 71.676l.018-6.755L88.508 50.79zM17.746 50.789l18.361 14.132.018 6.755-22.37-17.634c-.032-2.082.032-4.482 0-6.564l22.37-17.635.01 6.695z"></path></g><!----><g data-v-423bf9ae="" id="db2f6ac8-f57c-4d7c-995c-b3e2a394ae45" fill="#12262A" transform="matrix(1.7330747300479905,0,0,1.7330747300479905,128.66422311310038,55.147391925306366)"><path d="M3.69 8.81C4.93 9.11 5.76 9.43 6.20 9.79C6.51 10.04 6.66 10.36 6.66 10.76C6.66 11.16 6.58 11.47 6.42 11.70C5.99 12.29 5.25 12.59 4.19 12.59C2.69 12.59 1.86 12.08 1.68 11.07L0.52 11.07C0.85 12.68 2.08 13.48 4.18 13.48C5.12 13.48 5.90 13.27 6.54 12.86C7.29 12.37 7.67 11.65 7.67 10.69C7.67 9.91 7.37 9.31 6.76 8.88C6.32 8.57 5.62 8.29 4.65 8.04C3.68 7.79 3.05 7.58 2.75 7.42C2.11 7.10 1.79 6.65 1.79 6.07C1.79 5.76 1.86 5.50 2.00 5.30C2.37 4.75 3.01 4.48 3.93 4.48C5.23 4.48 5.98 4.89 6.17 5.71L7.23 5.71C6.88 4.33 5.78 3.64 3.93 3.64C3.08 3.64 2.35 3.86 1.72 4.30C1.10 4.75 0.78 5.42 0.78 6.31C0.78 7.53 1.75 8.36 3.69 8.81ZM13.34 12.24L13.34 13.30L14.32 13.30L14.32 7.14L13.34 7.14L13.34 9.72C13.34 10.57 13.18 11.24 12.86 11.72C12.55 12.21 12.01 12.45 11.24 12.45C10.82 12.45 10.52 12.30 10.34 12.02C10.16 11.73 10.07 11.39 10.07 10.99L10.07 7.14L9.09 7.14L9.09 10.99C9.09 11.70 9.28 12.29 9.67 12.74C10.05 13.20 10.59 13.43 11.28 13.43C12.19 13.43 12.88 13.03 13.34 12.24ZM17.19 16.80L17.19 12.25C17.25 12.32 17.31 12.39 17.37 12.46C17.95 13.11 18.67 13.44 19.52 13.44C20.37 13.44 21.08 13.11 21.66 12.46C22.23 11.83 22.51 11.08 22.51 10.22C22.51 9.36 22.23 8.61 21.66 7.98C21.08 7.33 20.37 7.00 19.52 7.00C18.67 7.00 17.95 7.33 17.37 7.98C17.31 8.05 17.25 8.12 17.19 8.19L17.19 7.14L16.21 7.14L16.21 16.80ZM21.53 10.22C21.53 10.82 21.32 11.34 20.91 11.79C20.49 12.24 19.98 12.46 19.36 12.46C18.75 12.46 18.23 12.24 17.81 11.79C17.40 11.34 17.19 10.82 17.19 10.22C17.19 9.62 17.40 9.10 17.81 8.65C18.23 8.20 18.75 7.98 19.36 7.98C19.98 7.98 20.49 8.20 20.91 8.65C21.32 9.10 21.53 9.62 21.53 10.22ZM30.21 10.08C30.21 9.23 29.89 8.50 29.24 7.88C28.60 7.28 27.85 6.97 26.99 6.97C26.11 6.97 25.35 7.29 24.72 7.92C24.09 8.55 23.77 9.31 23.77 10.19C23.77 11.08 24.09 11.84 24.72 12.46C25.01 12.75 25.35 12.98 25.74 13.15C26.13 13.31 26.59 13.40 27.14 13.40C27.68 13.40 28.22 13.23 28.75 12.89C29.28 12.55 29.67 12.08 29.93 11.49L28.81 11.49C28.60 11.78 28.33 12.01 28.01 12.17C27.68 12.34 27.35 12.42 26.99 12.42C26.47 12.42 25.99 12.25 25.56 11.90C25.15 11.56 24.89 11.13 24.79 10.60L30.21 10.60ZM29.18 9.76L24.81 9.76C24.86 9.50 24.96 9.26 25.10 9.04C25.56 8.31 26.19 7.95 26.99 7.95C27.52 7.95 27.98 8.12 28.38 8.46C28.80 8.80 29.06 9.23 29.18 9.76ZM34.99 8.41L34.99 7.14C34.79 7.06 34.58 7.01 34.37 7.01C33.68 7.01 33.17 7.40 32.84 8.16L32.80 8.41L32.80 7.14L31.82 7.14L31.82 13.30L32.80 13.30L32.80 10.22C32.80 9.71 32.92 9.26 33.15 8.86C33.27 8.64 33.42 8.47 33.61 8.32C33.79 8.18 34.01 8.11 34.26 8.11C34.52 8.11 34.76 8.21 34.99 8.41ZM42.60 8.81C43.83 9.11 44.67 9.43 45.11 9.79C45.42 10.04 45.57 10.36 45.57 10.76C45.57 11.16 45.49 11.47 45.32 11.70C44.90 12.29 44.16 12.59 43.09 12.59C41.60 12.59 40.76 12.08 40.58 11.07L39.42 11.07C39.76 12.68 40.98 13.48 43.09 13.48C44.02 13.48 44.81 13.27 45.44 12.86C46.20 12.37 46.58 11.65 46.58 10.69C46.58 9.91 46.27 9.31 45.67 8.88C45.23 8.57 44.53 8.29 43.56 8.04C42.59 7.79 41.95 7.58 41.65 7.42C41.01 7.10 40.70 6.65 40.70 6.07C40.70 5.76 40.77 5.50 40.91 5.30C41.27 4.75 41.91 4.48 42.83 4.48C44.13 4.48 44.88 4.89 45.07 5.71L46.13 5.71C45.78 4.33 44.68 3.64 42.83 3.64C41.99 3.64 41.25 3.86 40.63 4.30C40.00 4.75 39.69 5.42 39.69 6.31C39.69 7.53 40.66 8.36 42.60 8.81ZM48.99 5.01C48.86 4.89 48.72 4.83 48.55 4.83C48.37 4.83 48.23 4.89 48.10 5.01C47.98 5.13 47.92 5.28 47.92 5.45C47.92 5.63 47.98 5.77 48.10 5.89C48.23 6.02 48.37 6.08 48.55 6.08C48.72 6.08 48.86 6.02 48.99 5.89C49.11 5.77 49.17 5.63 49.17 5.45C49.17 5.28 49.11 5.13 48.99 5.01ZM49.04 13.30L49.04 7.14L48.06 7.14L48.06 13.30ZM59.01 13.27L59.99 13.27L59.99 9.42C59.99 8.73 59.82 8.16 59.48 7.71C59.31 7.49 59.09 7.31 58.83 7.18C58.57 7.04 58.22 6.97 57.79 6.97C57.36 6.97 56.99 7.09 56.67 7.32C56.37 7.53 56.13 7.81 55.94 8.14C55.87 7.99 55.79 7.85 55.69 7.71C55.51 7.49 55.30 7.31 55.03 7.18C54.77 7.04 54.43 6.97 54.00 6.97C53.57 6.97 53.19 7.09 52.87 7.32C52.59 7.52 52.36 7.78 52.18 8.09L52.18 7.11L51.20 7.11L51.20 13.27L52.18 13.27L52.18 10.12C52.23 9.62 52.36 9.20 52.56 8.85C52.71 8.59 52.91 8.37 53.16 8.20C53.41 8.04 53.68 7.95 53.97 7.95C54.26 7.95 54.47 8.00 54.61 8.08C55.02 8.34 55.22 8.78 55.22 9.42L55.22 13.27L56.20 13.27L56.20 9.42C56.20 9.34 56.19 9.26 56.19 9.19C56.24 9.07 56.29 8.95 56.35 8.85C56.50 8.59 56.70 8.37 56.95 8.20C57.20 8.04 57.47 7.95 57.76 7.95C58.05 7.95 58.27 8.00 58.41 8.08C58.81 8.34 59.01 8.78 59.01 9.42ZM62.86 16.80L62.86 12.25C62.91 12.32 62.97 12.39 63.04 12.46C63.62 13.11 64.33 13.44 65.18 13.44C66.03 13.44 66.75 13.11 67.33 12.46C67.90 11.83 68.18 11.08 68.18 10.22C68.18 9.36 67.90 8.61 67.33 7.98C66.75 7.33 66.03 7.00 65.18 7.00C64.33 7.00 63.62 7.33 63.04 7.98C62.97 8.05 62.91 8.12 62.86 8.19L62.86 7.14L61.88 7.14L61.88 16.80ZM67.20 10.22C67.20 10.82 66.99 11.34 66.58 11.79C66.16 12.24 65.64 12.46 65.03 12.46C64.42 12.46 63.90 12.24 63.48 11.79C63.07 11.34 62.86 10.82 62.86 10.22C62.86 9.62 63.07 9.10 63.48 8.65C63.90 8.20 64.42 7.98 65.03 7.98C65.64 7.98 66.16 8.20 66.58 8.65C66.99 9.10 67.20 9.62 67.20 10.22ZM70.84 13.30L70.84 2.80L69.86 2.80L69.86 13.30ZM78.96 10.08C78.96 9.23 78.64 8.50 77.99 7.88C77.35 7.28 76.60 6.97 75.74 6.97C74.85 6.97 74.09 7.29 73.47 7.92C72.83 8.55 72.52 9.31 72.52 10.19C72.52 11.08 72.83 11.84 73.47 12.46C73.76 12.75 74.10 12.98 74.49 13.15C74.87 13.31 75.34 13.40 75.89 13.40C76.43 13.40 76.97 13.23 77.50 12.89C78.02 12.55 78.42 12.08 78.68 11.49L77.56 11.49C77.35 11.78 77.08 12.01 76.75 12.17C76.43 12.34 76.09 12.42 75.74 12.42C75.21 12.42 74.74 12.25 74.31 11.90C73.89 11.56 73.64 11.13 73.54 10.60L78.96 10.60ZM77.92 9.76L73.56 9.76C73.61 9.50 73.71 9.26 73.85 9.04C74.31 8.31 74.94 7.95 75.74 7.95C76.26 7.95 76.73 8.12 77.13 8.46C77.55 8.80 77.81 9.23 77.92 9.76ZM89.25 10.22C89.25 10.82 89.04 11.34 88.63 11.79C88.21 12.24 87.69 12.46 87.08 12.46C86.47 12.46 85.95 12.24 85.53 11.79C85.12 11.34 84.91 10.82 84.91 10.22C84.91 9.62 85.12 9.10 85.53 8.65C85.95 8.20 86.47 7.98 87.08 7.98C87.69 7.98 88.21 8.20 88.63 8.65C89.04 9.10 89.25 9.62 89.25 10.22ZM90.23 13.30L90.23 7.14L89.25 7.14L89.25 8.19C89.20 8.12 89.14 8.05 89.08 7.98C88.49 7.33 87.78 7.00 86.93 7.00C86.08 7.00 85.36 7.33 84.78 7.98C84.21 8.61 83.93 9.36 83.93 10.22C83.93 11.08 84.21 11.83 84.78 12.46C85.36 13.11 86.08 13.44 86.93 13.44C87.78 13.44 88.49 13.11 89.08 12.46C89.14 12.39 89.20 12.32 89.25 12.25L89.25 13.30ZM96.59 13.30L97.57 13.30L97.57 9.45C97.57 8.74 97.38 8.16 97.01 7.72C96.82 7.50 96.59 7.33 96.32 7.20C96.05 7.08 95.69 7.01 95.26 7.01C94.82 7.01 94.43 7.13 94.09 7.36C93.78 7.57 93.52 7.85 93.31 8.20L93.31 7.14L92.33 7.14L92.33 13.30L93.31 13.30L93.31 10.72C93.31 9.94 93.46 9.32 93.75 8.86C93.91 8.60 94.13 8.39 94.39 8.23C94.65 8.07 94.99 7.99 95.41 7.99C95.83 7.99 96.13 8.14 96.31 8.42C96.50 8.71 96.59 9.05 96.59 9.45ZM104.36 10.22C104.36 10.82 104.15 11.34 103.73 11.79C103.32 12.24 102.80 12.46 102.19 12.46C101.57 12.46 101.06 12.24 100.64 11.79C100.22 11.34 100.02 10.82 100.02 10.22C100.02 9.62 100.22 9.10 100.64 8.65C101.06 8.20 101.57 7.98 102.19 7.98C102.80 7.98 103.32 8.20 103.73 8.65C104.15 9.10 104.36 9.62 104.36 10.22ZM105.34 13.30L105.34 2.80L104.36 2.80L104.36 8.19C104.30 8.12 104.24 8.05 104.18 7.98C103.60 7.33 102.88 7.00 102.03 7.00C101.18 7.00 100.46 7.33 99.88 7.98C99.32 8.61 99.04 9.36 99.04 10.22C99.04 11.08 99.32 11.83 99.88 12.46C100.46 13.11 101.18 13.44 102.03 13.44C102.88 13.44 103.60 13.11 104.18 12.46C104.24 12.39 104.30 12.32 104.36 12.25L104.36 13.30ZM118.61 8.54C118.61 7.85 118.48 7.21 118.22 6.63C117.97 6.05 117.62 5.54 117.18 5.12C116.74 4.70 116.22 4.38 115.63 4.14C115.03 3.90 114.39 3.78 113.71 3.78L111.22 3.78L111.22 13.30L113.71 13.30C114.39 13.30 115.03 13.18 115.63 12.94C116.22 12.71 116.74 12.38 117.18 11.96C117.62 11.54 117.97 11.03 118.22 10.45C118.48 9.87 118.61 9.23 118.61 8.54ZM117.66 8.54C117.66 9.63 117.27 10.53 116.51 11.26C115.76 11.97 114.84 12.32 113.74 12.32L112.20 12.32L112.20 4.76L113.74 4.76C114.84 4.76 115.76 5.11 116.51 5.82C117.27 6.55 117.66 7.45 117.66 8.54ZM126.31 10.08C126.31 9.23 125.98 8.50 125.34 7.88C124.70 7.28 123.95 6.97 123.09 6.97C122.20 6.97 121.44 7.29 120.81 7.92C120.18 8.55 119.87 9.31 119.87 10.19C119.87 11.08 120.18 11.84 120.81 12.46C121.11 12.75 121.45 12.98 121.84 13.15C122.22 13.31 122.69 13.40 123.24 13.40C123.78 13.40 124.32 13.23 124.85 12.89C125.37 12.55 125.77 12.08 126.03 11.49L124.91 11.49C124.69 11.78 124.43 12.01 124.10 12.17C123.78 12.34 123.44 12.42 123.09 12.42C122.56 12.42 122.09 12.25 121.66 11.90C121.24 11.56 120.98 11.13 120.89 10.60L126.31 10.60ZM125.27 9.76L120.90 9.76C120.96 9.50 121.06 9.26 121.20 9.04C121.66 8.31 122.29 7.95 123.09 7.95C123.61 7.95 124.08 8.12 124.48 8.46C124.90 8.80 125.16 9.23 125.27 9.76ZM127.15 8.05L128.69 8.05L128.69 13.30L129.67 13.30L129.67 8.05L131.19 8.05L131.19 7.14L129.67 7.14L129.67 4.75L128.69 4.75L128.69 7.14L127.15 7.14ZM137.42 10.22C137.42 10.82 137.22 11.34 136.80 11.79C136.38 12.24 135.87 12.46 135.25 12.46C134.64 12.46 134.12 12.24 133.71 11.79C133.29 11.34 133.08 10.82 133.08 10.22C133.08 9.62 133.29 9.10 133.71 8.65C134.12 8.20 134.64 7.98 135.25 7.98C135.87 7.98 136.38 8.20 136.80 8.65C137.22 9.10 137.42 9.62 137.42 10.22ZM138.40 13.30L138.40 7.14L137.42 7.14L137.42 8.19C137.37 8.12 137.31 8.05 137.25 7.98C136.67 7.33 135.95 7.00 135.10 7.00C134.25 7.00 133.53 7.33 132.95 7.98C132.39 8.61 132.10 9.36 132.10 10.22C132.10 11.08 132.39 11.83 132.95 12.46C133.53 13.11 134.25 13.44 135.10 13.44C135.95 13.44 136.67 13.11 137.25 12.46C137.31 12.39 137.37 12.32 137.42 12.25L137.42 13.30ZM141.50 5.01C141.38 4.89 141.23 4.83 141.06 4.83C140.88 4.83 140.74 4.89 140.62 5.01C140.49 5.13 140.43 5.28 140.43 5.45C140.43 5.63 140.49 5.77 140.62 5.89C140.74 6.02 140.88 6.08 141.06 6.08C141.23 6.08 141.38 6.02 141.50 5.89C141.62 5.77 141.68 5.63 141.68 5.45C141.68 5.28 141.62 5.13 141.50 5.01ZM141.55 13.30L141.55 7.14L140.57 7.14L140.57 13.30ZM144.69 13.30L144.69 2.80L143.71 2.80L143.71 13.30ZM159.31 10.39L158.23 10.39C157.90 11.00 157.44 11.50 156.85 11.87C156.26 12.25 155.61 12.43 154.90 12.43C153.85 12.43 152.96 12.04 152.22 11.27C151.49 10.52 151.13 9.61 151.13 8.55C151.13 7.49 151.49 6.58 152.22 5.82C152.56 5.47 152.95 5.19 153.41 4.98C153.87 4.77 154.32 4.66 154.76 4.66C155.19 4.66 155.58 4.71 155.91 4.81C156.93 5.11 157.70 5.73 158.21 6.68L159.29 6.68C158.93 5.77 158.35 5.04 157.56 4.49C156.76 3.93 155.87 3.65 154.90 3.65C153.58 3.65 152.45 4.14 151.52 5.11C151.09 5.56 150.76 6.08 150.51 6.67C150.27 7.26 150.15 7.89 150.15 8.55C150.15 9.89 150.61 11.03 151.52 11.98C152.45 12.95 153.58 13.44 154.90 13.44C155.87 13.44 156.76 13.16 157.57 12.59C158.37 12.03 158.95 11.30 159.31 10.39ZM165.82 10.19C165.82 10.80 165.60 11.32 165.16 11.76C164.72 12.20 164.19 12.42 163.58 12.42C162.96 12.42 162.43 12.20 161.99 11.76C161.56 11.32 161.34 10.80 161.34 10.19C161.34 9.58 161.56 9.05 161.99 8.61C162.43 8.17 162.96 7.95 163.58 7.95C164.19 7.95 164.72 8.17 165.16 8.61C165.60 9.05 165.82 9.58 165.82 10.19ZM166.80 10.19C166.80 9.31 166.48 8.55 165.85 7.92C165.22 7.29 164.46 6.97 163.58 6.97C162.69 6.97 161.93 7.29 161.30 7.92C160.67 8.55 160.36 9.31 160.36 10.19C160.36 11.08 160.67 11.84 161.30 12.46C161.94 13.09 162.69 13.40 163.58 13.40C164.46 13.40 165.22 13.09 165.85 12.46C166.48 11.84 166.80 11.08 166.80 10.19ZM173.38 10.22C173.38 10.82 173.17 11.34 172.75 11.79C172.34 12.24 171.82 12.46 171.21 12.46C170.59 12.46 170.08 12.24 169.66 11.79C169.24 11.34 169.04 10.82 169.04 10.22C169.04 9.62 169.24 9.10 169.66 8.65C170.08 8.20 170.59 7.98 171.21 7.98C171.82 7.98 172.34 8.20 172.75 8.65C173.17 9.10 173.38 9.62 173.38 10.22ZM174.36 13.30L174.36 2.80L173.38 2.80L173.38 8.19C173.32 8.12 173.26 8.05 173.20 7.98C172.62 7.33 171.90 7.00 171.05 7.00C170.20 7.00 169.48 7.33 168.90 7.98C168.34 8.61 168.06 9.36 168.06 10.22C168.06 11.08 168.34 11.83 168.90 12.46C169.48 13.11 170.20 13.44 171.05 13.44C171.90 13.44 172.62 13.11 173.20 12.46C173.26 12.39 173.32 12.32 173.38 12.25L173.38 13.30ZM177.45 5.01C177.33 4.89 177.18 4.83 177.01 4.83C176.84 4.83 176.69 4.89 176.57 5.01C176.45 5.13 176.39 5.28 176.39 5.45C176.39 5.63 176.45 5.77 176.57 5.89C176.69 6.02 176.84 6.08 177.01 6.08C177.18 6.08 177.33 6.02 177.45 5.89C177.57 5.77 177.63 5.63 177.63 5.45C177.63 5.28 177.57 5.13 177.45 5.01ZM177.51 13.30L177.51 7.14L176.53 7.14L176.53 13.30ZM183.92 13.30L184.90 13.30L184.90 9.45C184.90 8.74 184.71 8.16 184.34 7.72C184.15 7.50 183.92 7.33 183.65 7.20C183.38 7.08 183.03 7.01 182.59 7.01C182.15 7.01 181.76 7.13 181.43 7.36C181.11 7.57 180.85 7.85 180.64 8.20L180.64 7.14L179.66 7.14L179.66 13.30L180.64 13.30L180.64 10.72C180.64 9.94 180.79 9.32 181.08 8.86C181.25 8.60 181.46 8.39 181.72 8.23C181.98 8.07 182.32 7.99 182.74 7.99C183.16 7.99 183.46 8.14 183.64 8.42C183.83 8.71 183.92 9.05 183.92 9.45ZM191.77 10.22C191.77 10.82 191.56 11.34 191.15 11.79C190.73 12.24 190.22 12.46 189.60 12.46C189.00 12.46 188.49 12.24 188.06 11.79C187.64 11.35 187.43 10.83 187.43 10.22C187.43 9.61 187.64 9.09 188.06 8.65C188.49 8.20 189.00 7.98 189.60 7.98C190.22 7.98 190.73 8.20 191.15 8.65C191.56 9.10 191.77 9.62 191.77 10.22ZM187.41 14.14L186.41 14.14C186.51 14.79 186.81 15.37 187.31 15.86C187.93 16.49 188.68 16.80 189.56 16.80C190.44 16.80 191.19 16.49 191.81 15.86C192.44 15.24 192.75 14.49 192.75 13.61L192.75 7.14L191.77 7.14L191.77 8.17C191.73 8.11 191.67 8.05 191.61 7.98C191.00 7.33 190.28 7.00 189.46 7.00C188.60 7.00 187.88 7.33 187.30 7.98C186.73 8.61 186.45 9.36 186.45 10.22C186.45 11.08 186.73 11.83 187.30 12.46C187.88 13.11 188.60 13.44 189.46 13.44C190.31 13.44 191.03 13.11 191.61 12.46C191.67 12.39 191.73 12.33 191.77 12.27L191.77 13.61C191.77 14.21 191.55 14.74 191.12 15.17C190.69 15.60 190.17 15.82 189.56 15.82C188.95 15.82 188.43 15.60 188.00 15.17C187.70 14.87 187.50 14.52 187.41 14.14Z"></path></g></svg>